HIERARCHY
ROOT Hips
{
	OFFSET -0.001795 -0.223333 0.028219
	CHANNELS 6 Xposition Yposition Zposition Zrotation Yrotation Xrotation 
	JOINT LeftUpLeg
	{
		OFFSET 0.069520 -0.091406 -0.006815
		CHANNELS 3 Zrotation Yrotation Xrotation
		JOINT LeftLeg
		{
			OFFSET 0.034277 -0.375199 -0.004496
			CHANNELS 3 Zrotation Yrotation Xrotation
			JOINT LeftFoot
			{
				OFFSET -0.013596 -0.397961 -0.043693
				CHANNELS 3 Zrotation Yrotation Xrotation
				JOINT LeftToe
				{
					OFFSET 0.026358 -0.055791 0.119288
					CHANNELS 3 Zrotation Yrotation Xrotation
					End Site
					{
						OFFSET 0.000000 0.000000 0.000000
					}
				}
			}
		}
	}
	JOINT RightUpLeg
	{
		OFFSET -0.067670 -0.090522 -0.004320
		CHANNELS 3 Zrotation Yrotation Xrotation
		JOINT RightLeg
		{
			OFFSET -0.038290 -0.382569 -0.008850
			CHANNELS 3 Zrotation Yrotation Xrotation
			JOINT RightFoot
			{
				OFFSET 0.015774 -0.398415 -0.042312
				CHANNELS 3 Zrotation Yrotation Xrotation
				JOINT RightToe
				{
					OFFSET -0.025372 -0.048144 0.123348
					CHANNELS 3 Zrotation Yrotation Xrotation
					End Site
					{
						OFFSET 0.000000 0.000000 0.000000
					}
				}
			}
		}
	}
	JOINT Spine
	{
		OFFSET -0.002533 0.108963 -0.026696
		CHANNELS 3 Zrotation Yrotation Xrotation
		JOINT Spine1
		{
			OFFSET 0.005487 0.135180 0.001092
			CHANNELS 3 Zrotation Yrotation Xrotation
			JOINT Spine2
			{
				OFFSET 0.001457 0.052922 0.025425
				CHANNELS 3 Zrotation Yrotation Xrotation
				JOINT Neck
				{
					OFFSET -0.002778 0.213870 -0.042857
					CHANNELS 3 Zrotation Yrotation Xrotation
					JOINT Head
					{
						OFFSET 0.005152 0.064970 0.051349
						CHANNELS 3 Zrotation Yrotation Xrotation
						End Site
						{
							OFFSET 0.000000 0.000000 0.000000
						}
					}
				}
				JOINT LeftShoulder
				{
					OFFSET 0.078845 0.121749 -0.034090
					CHANNELS 3 Zrotation Yrotation Xrotation
					JOINT LeftArm
					{
						OFFSET 0.090977 0.030469 -0.008868
						CHANNELS 3 Zrotation Yrotation Xrotation
						JOINT LeftForeArm
						{
							OFFSET 0.259612 -0.012772 -0.027456
							CHANNELS 3 Zrotation Yrotation Xrotation
							JOINT LeftHand
							{
								OFFSET 0.249234 0.008986 -0.001171
								CHANNELS 3 Zrotation Yrotation Xrotation
								End Site
								{
									OFFSET 0.000000 0.000000 0.000000
								}
							}
						}
					}
				}
				JOINT RightShoulder
				{
					OFFSET -0.081759 0.118833 -0.038615
					CHANNELS 3 Zrotation Yrotation Xrotation
					JOINT RightArm
					{
						OFFSET -0.096012 0.032551 -0.009143
						CHANNELS 3 Zrotation Yrotation Xrotation
						JOINT RightForeArm
						{
							OFFSET -0.253742 -0.013329 -0.021401
							CHANNELS 3 Zrotation Yrotation Xrotation
							JOINT RightHand
							{
								OFFSET -0.255298 0.007772 -0.005559
								CHANNELS 3 Zrotation Yrotation Xrotation
								End Site
								{
									OFFSET 0.000000 0.000000 0.000000
								}
							}
						}
					}
				}
			}
		}
	}
}
MOTION
Frames: 5
Frame Time: 0.050000
0.000000 0.147511 0.000000 49.963220 -14.045902 53.879223 16.107406 -1.474168 -30.793313 -24.603129 19.852059 66.066227 -1.959976 -0.096250 9.257803 0.000000 0.000000 0.000000 33.060576 2.620598 -22.546205 -22.592905 27.775543 72.790153 -4.263828 -11.951191 2.206941 0.000000 0.000000 0.000000 27.297349 -13.040552 24.817114 -7.428957 1.790477 -24.071604 -10.109336 6.351098 8.689176 20.573838 -3.443699 -36.034985 0.000000 0.000000 0.000000 -14.081872 -22.665392 10.093232 -38.308368 -23.875608 3.196890 119.126592 -79.084975 -100.367635 0.000000 0.000000 0.000000 -48.525796 2.784408 3.781652 -40.331067 26.180961 -6.333155 -30.258156 -7.294291 2.700577 0.000000 0.000000 0.000000 
-0.003352 0.142229 0.000514 55.203108 -13.955591 50.623837 12.769966 -1.754214 -32.889587 -24.603700 19.466792 65.337640 -0.310954 6.504582 21.458076 0.000000 0.000000 0.000000 26.139594 3.785577 -26.572177 -12.244225 21.487949 83.785428 -3.715172 -14.436930 24.125361 0.000000 0.000000 0.000000 23.910432 -11.805038 26.616741 -1.833836 0.853884 -23.553473 -13.279977 6.111593 5.609888 18.430083 -3.245075 -32.500977 0.000000 0.000000 0.000000 -9.544877 -20.383770 8.120367 -43.960969 -23.688003 4.313587 84.665908 -85.318329 -72.908613 0.000000 0.000000 0.000000 -57.123134 2.091054 4.539762 -29.456842 22.884372 -3.507059 -36.393520 -1.496016 1.932763 0.000000 0.000000 0.000000 
-0.005811 0.139974 -0.000281 57.954844 -14.099037 50.502050 16.771757 -1.222716 -37.517043 -28.230573 23.598006 68.704151 1.493779 11.087217 32.323818 0.000000 0.000000 0.000000 26.301581 5.363022 -31.757096 -10.597398 22.417596 94.104515 -1.338332 -11.534868 28.248216 0.000000 0.000000 0.000000 26.212967 -12.403247 24.490503 -5.348607 1.507616 -22.705167 -14.151807 1.218321 5.702914 17.421166 -4.869160 -25.121838 0.000000 0.000000 0.000000 -8.864333 -17.121318 7.383463 -47.646951 -21.374921 3.931964 137.462476 -89.598190 -128.565121 0.000000 0.000000 0.000000 -56.641153 -2.459274 6.039769 -36.601403 23.685080 -5.299206 -31.655147 -2.433649 1.319006 0.000000 0.000000 0.000000 
-0.008336 0.127590 -0.000570 60.940608 -15.348451 47.906075 13.636485 -1.618849 -34.329526 -27.915248 21.948021 65.199575 3.031447 12.765638 31.960308 0.000000 0.000000 0.000000 22.845946 4.732935 -30.265828 -7.852194 18.127981 92.041362 -3.057521 -13.354661 24.918856 0.000000 0.000000 0.000000 24.170386 -10.976718 23.853935 -3.613996 1.212431 -21.686399 -14.744702 1.719125 6.761655 15.930804 -3.833923 -27.636628 0.000000 0.000000 0.000000 -2.074844 -12.481179 4.734871 -54.951256 -23.164998 5.678910 -29.322016 -85.772590 34.950020 0.000000 0.000000 0.000000 -62.733879 -2.766052 6.492062 -34.041097 20.696511 -3.725717 -27.633485 -2.161293 1.070784 0.000000 0.000000 0.000000 
-0.009746 0.122353 -0.001295 60.567232 -16.054950 49.673527 13.065100 -1.664901 -36.456549 -26.276843 21.980467 68.164694 4.064096 13.751153 29.599281 0.000000 0.000000 0.000000 22.056715 5.134876 -32.350202 -6.119025 16.888202 93.616854 -4.038288 -14.342202 21.366231 0.000000 0.000000 0.000000 24.519709 -10.979308 22.506912 -3.495878 1.161512 -22.494238 -14.473990 5.439966 6.435582 18.782238 -4.495367 -28.233316 0.000000 0.000000 0.000000 -6.485529 -15.844688 5.764503 -49.591673 -20.270228 3.707749 -50.685896 -83.192985 51.509486 0.000000 0.000000 0.000000 -61.362739 -3.337981 5.664218 -38.118861 22.032217 -3.824406 -20.448480 -1.870223 0.846019 0.000000 0.000000 0.000000 
